<?xml version="1.0" standalone="no"?>
<!DOCTYPE svg PUBLIC "-//W3C//DTD SVG 20010904//EN"
 "http://www.w3.org/TR/2001/REC-SVG-20010904/DTD/svg10.dtd">
<svg version="1.0" xmlns="http://www.w3.org/2000/svg"
 width="296.000000pt" height="296.000000pt" viewBox="0 0 296.000000 296.000000"
 preserveAspectRatio="xMidYMid meet">
<metadata>
Created by potrace 1.14, written by Peter Selinger 2001-2017
</metadata>
<g transform="translate(0.000000,296.000000) scale(0.100000,-0.100000)"
fill="#000000" stroke="none">
<path d="M1414 2875 c1 -7 8 -20 16 -30 11 -14 11 -16 -1 -13 -10 2 -14 -7
-13 -34 0 -36 -2 -38 -30 -38 -17 0 -38 -5 -46 -10 -10 -6 -11 -10 -2 -10 6 0
12 -9 12 -21 0 -15 -5 -19 -16 -15 -8 3 -12 2 -9 -4 4 -6 -6 -7 -26 -3 -26 5
-30 3 -24 -8 8 -12 6 -12 -8 0 -19 15 -23 1 -5 -17 9 -9 7 -13 -6 -18 -9 -4
-20 -4 -23 0 -4 3 1 6 10 6 15 0 15 3 5 20 -12 18 -13 18 -24 -8 -8 -19 -8
-29 0 -34 9 -6 -119 -14 -147 -9 -5 1 -5 -4 -1 -11 5 -7 9 -23 10 -34 1 -26
-28 -27 -38 -1 -4 9 -13 17 -20 16 -10 0 -10 -2 0 -6 15 -6 16 -33 1 -33 -5 0
-7 5 -3 12 5 8 3 8 -7 2 -8 -5 -35 -9 -60 -10 -25 -1 -50 -3 -55 -6 -5 -3 -25
-4 -45 -3 -30 1 -35 -2 -35 -20 0 -12 6 -22 13 -22 7 0 13 4 13 9 0 4 -5 8
-12 8 -16 0 -1 13 18 16 10 2 14 -3 10 -11 -3 -8 0 -17 6 -21 6 -4 8 -3 4 4
-3 6 -2 13 3 16 5 4 8 -2 7 -11 -2 -14 -15 -18 -70 -19 -63 -2 -66 -1 -60 18
4 14 2 18 -5 14 -6 -4 -11 -2 -11 3 0 6 8 12 18 13 9 1 -8 4 -38 7 -97 10
-100 8 -100 -65 0 -68 1 -69 55 -65 18 1 19 1 3 -9 -26 -16 -41 -47 -22 -47 8
0 13 7 12 15 -2 8 2 17 7 18 6 2 11 -8 11 -22 2 -29 12 -43 22 -29 4 6 15 11
24 13 22 3 29 -48 8 -66 -13 -11 -12 -12 6 -7 19 5 57 6 119 3 19 0 20 -7 19
-92 -1 -50 -2 -93 -3 -96 -7 -17 -8 -39 -1 -35 9 6 7 -95 -3 -111 -3 -6 -3
-14 0 -18 4 -3 7 -15 8 -26 1 -16 -4 -18 -32 -14 -32 4 -33 3 -33 -31 0 -21
-5 -35 -12 -36 -7 0 -29 -2 -49 -3 -20 -2 -41 -6 -47 -9 -5 -4 -13 -2 -15 3
-3 6 -4 5 -3 -2 2 -7 -1 -22 -6 -33 l-9 -20 16 20 c18 22 66 29 58 8 -3 -7
-10 -13 -17 -13 -7 0 -7 -3 1 -8 7 -5 -5 -8 -30 -8 -23 -1 -45 4 -49 10 -5 8
-8 7 -8 -1 0 -9 -17 -13 -52 -13 -28 0 -48 3 -45 6 3 4 2 16 -4 27 -8 15 -8
18 1 12 8 -5 11 -3 8 5 -2 8 -21 15 -42 17 -33 2 -36 1 -26 -12 16 -20 6 -19
-14 1 -18 18 -53 11 -53 -11 0 -8 5 -11 11 -8 6 4 5 -1 -3 -10 -11 -14 -11
-17 0 -17 10 0 10 -3 3 -8 -12 -7 -11 -72 0 -91 4 -6 2 -11 -4 -11 -7 0 -6 -5
2 -14 14 -15 32 0 21 18 -4 5 1 7 11 3 10 -4 15 -3 11 3 -3 6 -1 10 4 10 16 0
13 -21 -5 -34 -17 -13 -18 -13 51 -18 19 -2 31 -9 33 -20 2 -10 -2 -18 -8 -18
-7 0 -4 -7 5 -17 14 -14 18 -14 26 -2 5 8 9 9 9 3 0 -7 17 -12 37 -12 68 0 67
0 52 -19 -8 -9 -9 -14 -3 -11 13 8 13 -101 0 -121 -6 -10 -6 -12 2 -7 15 9 12
-76 -3 -86 -6 -5 -5 -8 3 -8 8 0 12 -15 10 -45 0 -24 -4 -42 -8 -40 -4 2 -7
-2 -7 -10 0 -8 5 -12 10 -8 5 3 7 -3 5 -13 -2 -11 -10 -20 -18 -20 -8 -1 -23
-2 -32 -3 -14 -1 -18 -10 -18 -35 0 -32 -2 -35 -32 -36 -18 0 -41 -1 -50 -1
-10 0 -20 -5 -23 -10 -4 -5 -11 -7 -16 -3 -6 3 -10 0 -8 -7 5 -40 0 -45 -51
-43 -35 2 -48 -1 -43 -9 4 -8 2 -8 -9 0 -8 7 -18 10 -21 6 -4 -3 -7 1 -7 11 0
11 -4 15 -13 10 -8 -6 -8 -3 1 9 22 26 5 37 -58 37 l-58 0 -3 -37 c-4 -34 6
-135 10 -107 2 16 48 12 48 -3 0 -15 -24 -18 -29 -4 -2 5 -8 3 -15 -4 -9 -10
-6 -15 13 -24 15 -7 23 -7 19 -1 -3 5 -1 10 4 10 6 0 11 -9 11 -19 0 -11 5
-23 12 -27 6 -4 8 -3 5 3 -4 6 0 13 8 17 8 3 17 1 20 -5 4 -5 10 -7 14 -5 11
7 10 -26 0 -40 -8 -10 23 -15 99 -14 16 0 21 -4 16 -13 -5 -8 -2 -7 9 2 16 13
17 -2 17 -224 0 -131 3 -235 6 -232 4 3 15 2 25 -3 12 -7 20 -7 24 0 5 8 12 7
23 -2 12 -10 14 -10 8 0 -4 6 -2 12 3 12 6 0 11 -6 11 -12 0 -9 4 -8 10 2 7
11 10 11 10 2 0 -7 5 -10 10 -7 16 10 71 15 66 7 -2 -4 4 -8 14 -8 10 0 16 4
14 8 -3 4 0 8 5 8 6 0 11 -5 11 -11 0 -6 5 -7 13 -2 17 11 107 11 107 0 0 -5
6 -5 13 1 13 11 67 9 87 -3 9 -5 11 -4 6 3 -4 7 -2 12 3 12 6 0 11 -5 11 -11
0 -8 4 -8 13 -1 13 11 67 9 87 -3 9 -5 11 -4 6 3 -4 7 -2 12 3 12 6 0 11 -5
11 -11 0 -8 4 -8 13 -1 13 11 67 9 87 -3 9 -5 11 -4 6 3 -4 7 -2 12 3 12 6 0
11 -5 11 -11 0 -8 4 -8 12 -1 14 11 68 9 88 -3 9 -5 11 -4 6 3 -4 7 -2 12 3
12 6 0 11 -5 11 -11 0 -8 4 -8 13 -1 13 11 67 9 87 -3 9 -5 11 -4 6 3 -4 7 -2
12 3 12 6 0 11 -5 11 -11 0 -8 4 -8 13 -1 13 11 67 9 87 -3 9 -5 11 -4 6 3 -4
7 -2 12 3 12 6 0 11 -5 11 -11 0 -8 4 -8 13 -1 13 11 67 9 87 -3 9 -5 11 -4 6
3 -4 7 -2 12 3 12 6 0 11 -5 11 -11 0 -6 5 -7 13 -2 15 10 77 11 71 1 -3 -5
-1 -8 5 -8 5 0 12 6 14 13 4 9 8 9 15 -2 6 -9 12 -10 16 -3 7 12 66 9 87 -3 8
-5 10 -4 5 3 -4 7 -2 12 3 12 6 0 11 -5 11 -11 0 -8 4 -8 13 -1 13 11 67 9 87
-3 9 -5 11 -4 6 3 -4 7 -2 12 3 12 6 0 11 -5 11 -11 0 -8 4 -8 13 -1 13 11 67
9 87 -3 9 -5 11 -4 6 3 -4 7 -2 12 3 12 6 0 11 -5 11 -11 0 -6 5 -7 13 -2 15
10 77 11 71 1 -3 -5 -1 -8 5 -8 5 0 12 6 15 13 5 9 7 9 12 -1 3 -6 11 -9 17
-5 19 12 127 11 120 -1 -3 -6 0 -6 7 1 7 6 19 9 26 6 16 -6 15 -18 14 185 -1
112 3 158 12 170 10 12 10 14 1 8 -17 -10 -17 35 0 53 10 11 10 13 0 7 -9 -5
-13 1 -13 18 0 31 26 35 46 9 13 -17 14 -17 8 -1 -5 14 0 17 28 16 46 -2 56 6
50 38 -3 19 -1 25 7 20 6 -4 8 -12 5 -18 -4 -7 -2 -8 5 -4 6 4 9 12 6 17 -4 5
5 9 18 9 27 0 42 31 24 49 -6 6 -7 12 -2 12 6 1 20 3 31 4 31 3 43 13 39 33
-2 9 -4 36 -4 60 l-1 43 -64 -2 c-57 -2 -63 -4 -63 -23 0 -12 -1 -25 -2 -31
-2 -15 -131 -13 -131 3 0 6 -5 12 -11 12 -5 0 -8 -4 -4 -9 3 -5 0 -13 -6 -17
-8 -4 -9 -3 -5 4 4 7 3 12 -3 12 -5 0 -11 -6 -13 -12 -3 -8 -9 -4 -17 10 -6
12 -8 22 -4 21 20 -3 23 2 8 17 -9 10 -30 17 -46 16 -30 -1 -33 6 -30 54 2 18
-3 20 -34 18 -26 -2 -35 1 -35 12 0 9 5 12 13 8 9 -6 9 -5 0 8 -16 19 -15 256
1 277 8 11 8 13 0 8 -7 -4 -11 7 -11 33 0 39 1 40 34 40 41 0 49 -2 45 -15 -1
-5 7 1 18 15 12 16 20 20 20 11 0 -11 3 -12 11 -4 10 10 8 25 -4 52 -1 2 8 6
21 7 12 2 22 -1 22 -7 0 -5 -4 -7 -10 -4 -5 3 -10 1 -10 -4 0 -16 18 -13 28 5
5 9 25 17 47 18 22 2 40 8 41 15 1 6 0 7 -3 1 -2 -5 -9 -8 -14 -4 -5 3 -3 17
4 32 8 15 13 54 13 87 l-1 60 -55 1 c-66 2 -76 -3 -75 -36 0 -23 -4 -25 -47
-27 -31 -1 -48 3 -48 10 0 7 -4 6 -10 -3 -12 -19 -27 -4 -32 29 -2 16 -10 25
-24 26 -11 1 -21 -4 -21 -10 0 -7 7 -12 15 -11 8 1 18 -9 23 -21 5 -14 5 -23
-1 -23 -10 0 -14 15 -10 35 1 5 -2 6 -7 2 -4 -5 -8 -14 -8 -19 0 -6 -7 -13
-15 -15 -13 -4 -13 -3 0 6 10 7 11 11 3 11 -7 0 -12 3 -12 8 4 26 -3 43 -18
41 -44 -4 -54 1 -51 24 1 12 -6 33 -16 47 -11 14 -16 18 -13 8 7 -19 -9 -24
-29 -10 -14 10 -14 363 1 354 5 -3 4 2 -4 11 -18 23 -3 28 71 24 48 -3 57 0
61 15 5 19 -2 23 -19 11 -5 -5 -1 0 9 10 21 18 42 23 32 7 -3 -6 1 -7 10 -3
13 4 14 8 4 14 -8 4 -10 11 -6 15 3 4 13 2 20 -5 12 -9 14 -7 12 13 -2 19 1
23 13 19 10 -4 13 -2 8 5 -4 7 -3 12 2 12 5 0 13 -10 19 -22 8 -19 10 -20 16
-4 4 9 3 15 -3 11 -5 -3 -8 4 -7 15 1 11 4 20 8 20 3 0 6 29 5 64 -1 62 -2 65
-28 68 -15 3 -25 1 -23 -3 6 -8 -47 -5 -62 4 -6 4 -13 -2 -16 -13 -3 -11 -1
-23 4 -26 5 -3 7 -10 3 -15 -3 -5 -9 -7 -14 -4 -5 3 -11 1 -15 -5 -4 -6 -11
-7 -17 -4 -6 4 -30 7 -53 7 -28 0 -42 4 -42 13 0 7 6 15 14 18 17 7 44 -4 37
-15 -3 -5 0 -9 5 -9 27 0 0 43 -28 45 -11 1 -18 -2 -15 -7 3 -4 1 -8 -4 -8 -6
0 -13 7 -16 16 -5 12 -10 14 -20 5 -7 -6 -16 -7 -20 -3 -4 4 -22 7 -39 8 -18
1 -54 2 -82 3 -27 1 -45 5 -40 9 19 14 15 48 -6 49 -11 1 -17 -2 -15 -6 3 -4
-1 -8 -9 -8 -8 0 -12 4 -9 9 3 4 -15 8 -40 8 -47 0 -60 12 -45 42 6 10 5 19
-1 23 -5 3 -10 -2 -10 -11 0 -16 -1 -16 -15 2 -12 16 -16 17 -24 4 -5 -8 -7
-18 -4 -24 4 -5 10 -1 14 10 6 16 8 16 8 2 1 -9 -3 -19 -8 -23 -10 -6 -26 12
-26 30 0 6 -9 11 -20 11 -11 1 -26 2 -32 3 -8 1 -13 15 -13 34 0 30 -2 32 -32
32 -27 0 -33 4 -31 20 1 11 -4 23 -10 27 -7 5 -8 8 -2 8 6 0 10 15 10 33 l-1
32 -66 1 c-49 2 -65 -1 -64 -11z m122 -17 c3 -4 -1 -5 -10 -4 -8 1 -18 5 -22
8 -3 4 1 5 10 4 8 -1 18 -5 22 -8z m-812 -316 c3 -5 -1 -9 -9 -9 -8 0 -12 4
-9 9 3 4 7 8 9 8 2 0 6 -4 9 -8z m-69 -23 c11 -16 1 -19 -13 -3 -7 8 -8 14 -3
14 5 0 13 -5 16 -11z m1635 2 c0 -6 -4 -12 -8 -15 -5 -3 -9 1 -9 9 0 8 4 15 9
15 4 0 8 -4 8 -9z m23 -98 c3 -5 -6 -9 -19 -9 -13 -1 -24 2 -24 7 0 11 37 12
43 2z m-88 -63 c-3 -5 -11 -10 -16 -10 -6 0 -7 5 -4 10 3 6 11 10 16 10 6 0 7
-4 4 -10z m-1415 -14 c0 -3 -4 -8 -10 -11 -5 -3 -10 -1 -10 4 0 6 5 11 10 11
6 0 10 -2 10 -4z m1715 -545 c3 -5 2 -12 -3 -15 -5 -3 -9 1 -9 9 0 17 3 19 12
6z m-2055 -102 c0 -4 -7 -10 -16 -13 -8 -3 -13 -2 -9 3 3 5 -1 11 -7 14 -7 3
-3 4 10 4 12 -1 22 -4 22 -8z m2039 -23 c-13 -29 -39 -30 -36 -2 2 20 25 38
39 29 4 -2 3 -14 -3 -27z m-139 -50 c0 -3 -4 -8 -10 -11 -5 -3 -10 -1 -10 4 0
6 5 11 10 11 6 0 10 -2 10 -4z m-1814 -541 c-1 -7 -9 -23 -19 -36 -10 -14 -14
-17 -11 -6 5 13 2 16 -10 11 -20 -8 -21 10 -2 29 17 17 44 18 42 2z m2135 -8
c-6 -8 -7 -18 -3 -22 4 -5 1 -5 -6 -1 -10 6 -10 11 -1 22 6 8 14 14 16 14 3 0
0 -6 -6 -13z"/>
<path d="M2495 1689 c-4 -6 -5 -12 -2 -15 2 -3 7 2 10 11 7 17 1 20 -8 4z"/>
<path d="M521 1076 c-10 -11 -9 -14 1 -12 14 2 23 15 15 22 -2 2 -10 -2 -16
-10z"/>
<path d="M1893 2601 c0 -11 5 -18 9 -15 4 3 5 11 1 19 -7 21 -12 19 -10 -4z"/>
<path d="M1056 2595 c4 -8 8 -15 10 -15 2 0 4 7 4 15 0 8 -4 15 -10 15 -5 0
-7 -7 -4 -15z"/>
<path d="M2090 2520 c0 -5 5 -10 10 -10 6 0 10 5 10 10 0 6 -4 10 -10 10 -5 0
-10 -4 -10 -10z"/>
<path d="M625 2411 c-3 -5 0 -13 6 -17 7 -4 9 -3 5 4 -3 5 0 13 6 15 9 4 10 6
1 6 -6 1 -14 -3 -18 -8z"/>
<path d="M2286 2368 c3 -5 10 -6 15 -3 13 9 11 12 -6 12 -8 0 -12 -4 -9 -9z"/>
<path d="M702 2320 c-7 -12 -18 -18 -24 -14 -7 4 -8 3 -4 -4 8 -13 36 -5 36
10 0 5 4 6 10 3 6 -3 7 1 4 9 -8 20 -7 20 -22 -4z"/>
<path d="M2244 2315 c-4 -8 -11 -12 -17 -8 -6 4 -7 1 -2 -7 6 -10 11 -10 20 3
7 9 15 14 18 10 4 -3 7 -1 7 5 0 17 -20 15 -26 -3z"/>
<path d="M2275 2289 c-4 -6 -5 -12 -2 -15 2 -3 7 2 10 11 7 17 1 20 -8 4z"/>
<path d="M735 2260 c3 -5 8 -10 11 -10 2 0 4 5 4 10 0 6 -5 10 -11 10 -5 0 -7
-4 -4 -10z"/>
<path d="M835 2250 c-4 -6 -11 -7 -17 -4 -7 4 -8 2 -4 -5 6 -9 11 -9 22 0 14
11 18 19 10 19 -3 0 -8 -5 -11 -10z"/>
<path d="M2130 2219 c0 -5 5 -7 10 -4 6 3 10 8 10 11 0 2 -4 4 -10 4 -5 0 -10
-5 -10 -11z"/>
<path d="M2094 2182 c4 -3 14 -7 22 -8 9 -1 13 0 10 4 -4 3 -14 7 -22 8 -9 1
-13 0 -10 -4z"/>
<path d="M839 1933 c-13 -16 -12 -17 4 -4 9 7 17 15 17 17 0 8 -8 3 -21 -13z"/>
<path d="M707 1796 c-4 -10 -1 -13 9 -9 7 3 14 9 14 14 0 14 -17 10 -23 -5z"/>
<path d="M494 1609 c0 -10 4 -19 8 -19 4 0 8 6 8 14 0 8 -4 17 -8 20 -4 2 -8
-4 -8 -15z"/>
<path d="M535 1620 c3 -5 8 -10 11 -10 2 0 4 5 4 10 0 6 -5 10 -11 10 -5 0 -7
-4 -4 -10z"/>
<path d="M2456 1614 c-3 -9 -2 -22 2 -31 6 -10 9 -5 9 16 0 35 -2 38 -11 15z"/>
<path d="M2425 1589 c-4 -6 -5 -12 -2 -15 2 -3 7 2 10 11 7 17 1 20 -8 4z"/>
<path d="M516 1582 c-3 -4 4 -9 15 -9 23 -2 25 3 4 10 -8 4 -16 3 -19 -1z"/>
<path d="M496 1542 c-2 -4 -1 -14 4 -22 7 -11 9 -9 7 8 -1 24 -3 26 -11 14z"/>
<path d="M2357 1533 c-10 -9 -9 -23 1 -23 5 0 9 7 9 15 0 17 -1 18 -10 8z"/>
<path d="M530 1499 c0 -5 5 -7 10 -4 6 3 10 8 10 11 0 2 -4 4 -10 4 -5 0 -10
-5 -10 -11z"/>
<path d="M570 1499 c0 -5 5 -7 10 -4 6 3 10 8 10 11 0 2 -4 4 -10 4 -5 0 -10
-5 -10 -11z"/>
<path d="M2395 1500 c3 -5 8 -10 11 -10 2 0 4 5 4 10 0 6 -5 10 -11 10 -5 0
-7 -4 -4 -10z"/>
<path d="M655 1471 c-3 -5 -2 -12 3 -15 5 -3 9 1 9 9 0 17 -3 19 -12 6z"/>
<path d="M2315 1231 c-3 -5 -2 -12 3 -15 5 -3 9 1 9 9 0 17 -3 19 -12 6z"/>
<path d="M638 1213 c7 -3 16 -2 19 1 4 3 -2 6 -13 5 -11 0 -14 -3 -6 -6z"/>
<path d="M2429 1097 c7 -7 7 -15 -1 -24 -8 -11 -7 -12 6 -7 20 8 21 41 1 41
-11 0 -12 -4 -6 -10z"/>
<path d="M2682 941 c0 -17 1 -31 3 -31 7 0 12 39 5 49 -4 7 -7 -1 -8 -18z"/>
<path d="M2713 956 c3 -7 1 -18 -5 -24 -6 -6 -6 -12 3 -17 8 -5 10 -4 5 3 -4
7 -3 12 3 12 5 0 9 9 8 20 -1 11 -5 20 -10 20 -5 0 -7 -6 -4 -14z"/>
<path d="M2650 890 c-8 -5 -16 -18 -16 -30 -1 -17 1 -18 15 -8 26 20 27 22 9
15 -10 -4 -18 -4 -18 0 0 3 8 12 18 19 20 15 14 18 -8 4z"/>
<path d="M2715 891 c-3 -5 -2 -12 3 -15 5 -3 9 1 9 9 0 17 -3 19 -12 6z"/>
<path d="M330 880 c0 -5 5 -10 10 -10 6 0 10 5 10 10 0 6 -4 10 -10 10 -5 0
-10 -4 -10 -10z"/>
<path d="M299 863 c-13 -16 -12 -17 4 -4 16 13 21 21 13 21 -2 0 -10 -8 -17
-17z"/>
<path d="M315 851 c-3 -5 -2 -12 3 -15 5 -3 9 1 9 9 0 17 -3 19 -12 6z"/>
<path d="M294 816 c1 -8 5 -18 8 -22 4 -3 5 1 4 10 -1 8 -5 18 -8 22 -4 3 -5
-1 -4 -10z"/>
<path d="M2615 821 c-3 -5 -2 -12 3 -15 5 -3 9 1 9 9 0 17 -3 19 -12 6z"/>
<path d="M320 760 c-9 -6 -10 -10 -3 -10 6 0 15 5 18 10 8 12 4 12 -15 0z"/>
<path d="M2595 760 c-3 -5 -1 -10 4 -10 6 0 11 5 11 10 0 6 -2 10 -4 10 -3 0
-8 -4 -11 -10z"/>
<path d="M350 745 c0 -7 30 -13 34 -7 3 4 -4 9 -15 9 -10 1 -19 0 -19 -2z"/>
<path d="M455 740 c-3 -5 -1 -10 4 -10 6 0 11 5 11 10 0 6 -2 10 -4 10 -3 0
-8 -4 -11 -10z"/>
<path d="M1113 365 c0 -8 4 -12 9 -9 5 3 6 10 3 15 -9 13 -12 11 -12 -6z"/>
<path d="M1593 365 c0 -8 4 -12 9 -9 5 3 6 10 3 15 -9 13 -12 11 -12 -6z"/>
<path d="M2073 365 c0 -8 4 -12 9 -9 5 3 6 10 3 15 -9 13 -12 11 -12 -6z"/>
<path d="M747 339 c7 -7 15 -10 18 -7 3 3 -2 9 -12 12 -14 6 -15 5 -6 -5z"/>
<path d="M795 341 c-3 -5 -2 -12 3 -15 5 -3 9 1 9 9 0 17 -3 19 -12 6z"/>
<path d="M946 342 c-3 -5 1 -9 9 -9 8 0 12 4 9 9 -3 4 -7 8 -9 8 -2 0 -6 -4
-9 -8z"/>
<path d="M987 339 c7 -7 15 -10 18 -7 3 3 -2 9 -12 12 -14 6 -15 5 -6 -5z"/>
<path d="M1227 339 c7 -7 15 -10 18 -7 3 3 -2 9 -12 12 -14 6 -15 5 -6 -5z"/>
<path d="M1353 335 c0 -8 4 -12 9 -9 5 3 6 10 3 15 -9 13 -12 11 -12 -6z"/>
<path d="M1467 339 c7 -7 15 -10 18 -7 3 3 -2 9 -12 12 -14 6 -15 5 -6 -5z"/>
<path d="M1707 339 c7 -7 15 -10 18 -7 3 3 -2 9 -12 12 -14 6 -15 5 -6 -5z"/>
<path d="M1947 339 c7 -7 15 -10 18 -7 3 3 -2 9 -12 12 -14 6 -15 5 -6 -5z"/>
<path d="M2187 339 c7 -7 15 -10 18 -7 3 3 -2 9 -12 12 -14 6 -15 5 -6 -5z"/>
<path d="M1806 318 c3 -5 10 -6 15 -3 13 9 11 12 -6 12 -8 0 -12 -4 -9 -9z"/>
<path d="M733 305 c0 -8 4 -12 9 -9 5 3 6 10 3 15 -9 13 -12 11 -12 -6z"/>
<path d="M1213 305 c0 -8 4 -12 9 -9 5 3 6 10 3 15 -9 13 -12 11 -12 -6z"/>
<path d="M1693 305 c0 -8 4 -12 9 -9 5 3 6 10 3 15 -9 13 -12 11 -12 -6z"/>
<path d="M2173 305 c0 -8 4 -12 9 -9 5 3 6 10 3 15 -9 13 -12 11 -12 -6z"/>
<path d="M615 300 c3 -5 8 -10 11 -10 2 0 4 5 4 10 0 6 -5 10 -11 10 -5 0 -7
-4 -4 -10z"/>
<path d="M770 299 c0 -5 5 -7 10 -4 6 3 10 8 10 11 0 2 -4 4 -10 4 -5 0 -10
-5 -10 -11z"/>
<path d="M930 300 c0 -5 5 -10 11 -10 5 0 7 5 4 10 -3 6 -8 10 -11 10 -2 0 -4
-4 -4 -10z"/>
<path d="M1250 299 c0 -5 5 -7 10 -4 6 3 10 8 10 11 0 2 -4 4 -10 4 -5 0 -10
-5 -10 -11z"/>
<path d="M1730 299 c0 -5 5 -7 10 -4 6 3 10 8 10 11 0 2 -4 4 -10 4 -5 0 -10
-5 -10 -11z"/>
<path d="M1895 300 c-3 -5 -1 -10 4 -10 6 0 11 5 11 10 0 6 -2 10 -4 10 -3 0
-8 -4 -11 -10z"/>
<path d="M2210 299 c0 -5 5 -7 10 -4 6 3 10 8 10 11 0 2 -4 4 -10 4 -5 0 -10
-5 -10 -11z"/>
<path d="M2335 300 c-3 -5 -1 -10 4 -10 6 0 11 5 11 10 0 6 -2 10 -4 10 -3 0
-8 -4 -11 -10z"/>
<path d="M1796 278 c3 -5 10 -6 15 -3 13 9 11 12 -6 12 -8 0 -12 -4 -9 -9z"/>
<path d="M2276 278 c3 -5 10 -6 15 -3 13 9 11 12 -6 12 -8 0 -12 -4 -9 -9z"/>
</g>
</svg>
